<svg width="247" height="60" xmlns="http://www.w3.org/2000/svg"><g fill="none" fill-rule="evenodd"><g fill="#00b0ff"><rect height="60" rx="6" width="28"/><rect height="28" rx="6" width="28" x="32"/><rect fill="#1565c0" height="28" rx="6" width="28" x="32" y="32"/></g><path d="M72.724 48.04c.318 0 .53-.212.53-.53V34.737c0-.212.106-.318.318-.318h7.473c6.996 0 11.872-4.505 11.872-11.236C92.917 16.505 88.041 12 81.045 12H67.53c-.318 0-.53.212-.53.53v34.98c0 .318.212.53.53.53h5.194zm7.95-19.292h-7.102c-.212 0-.318-.106-.318-.318V17.936c0-.212.106-.318.318-.318h7.102c3.71 0 5.989 2.279 5.989 5.565 0 3.339-2.279 5.565-5.989 5.565zm33.631 19.292c.318 0 .522-.26.522-.57V30.62c0-6.117-2.888-8.58-10.68-8.58-4.187 0-6.969.856-9.036 2.308-.212.155-.265.414-.106.674l1.961 3.421c.159.26.477.311.742.104 1.219-.933 2.956-1.507 5.818-1.507 4.293 0 5.683 1.092 5.683 3.944v1.192c0 .207-.106.311-.318.311h-5.194c-6.307 0-10.229 2.488-10.229 7.932 0 5.236 3.922 7.621 8.586 7.621 3.604 0 6.042-.681 7.261-2.392v1.822c0 .31.22.57.538.57h4.452zm-10.767-4.24c-2.862 0-4.399-1.06-4.399-3.18 0-2.385 1.696-3.445 5.512-3.445h4.24c.212 0 .318.106.318.318v1.961c0 2.915-2.014 4.346-5.671 4.346zm26.329 4.248s.53-.212.53-.53v-4.24c0-.318-.212-.53-.53-.53h-1.325c-1.643 0-2.385-.583-2.385-2.385V27.321c0-.212.106-.281.318-.281h3.092c.318 0 .553-.182.553-.5v-3.932a.55.55 0 00-.553-.568h-3.092c-.212 0-.318-.137-.318-.349V12.56c0-.318-.16-.519-.479-.519h-4.955c-.318 0-.502.2-.502.519v9.132c0 .212-.106.349-.318.349h-2.616a.558.558 0 00-.562.568v3.932c0 .318.244.5.562.5h2.616c.212 0 .318.07.318.281v13.254c0 4.982 1.96 7.473 7.102 7.473h2.544zm24.54-.008c.318 0 .53-.212.53-.53V31.398c0-5.459-3.219-9.358-8.678-9.358-3.392 0-5.791 1.249-6.904 2.839l-.053-12.349c0-.318-.212-.53-.53-.53h-4.876c-.318 0-.53.212-.53.53v34.98c0 .318.212.53.53.53h4.876c.318 0 .53-.212.53-.53V32.776c0-3.286 2.175-5.736 5.249-5.736 3.18 0 4.45 2.45 4.45 5.736V47.51c0 .318.212.53.53.53h4.876zm23.818-3.847c.159-.258.212-.516-.053-.723l-3.339-2.837c-.265-.206-.53-.206-.742.052-1.272 1.392-2.597 2.166-4.717 2.166-2.279 0-4.028-1.083-4.77-3.198-.424-1.238-.53-2.734-.53-4.643 0-1.909.106-3.353.53-4.591.742-2.167 2.491-3.379 4.77-3.379 2.12 0 3.445.903 4.717 2.295.212.258.477.31.742.104l3.339-2.838c.265-.206.212-.516.053-.722-2.014-2.373-5.035-3.869-8.851-3.869-5.141 0-9.063 2.425-10.547 6.861-.53 1.548-.795 3.508-.795 6.139 0 2.631.265 4.591.795 6.139 1.484 4.436 5.406 6.861 10.547 6.861 3.816 0 6.837-1.496 8.851-3.817zm23.871-3.044c.583-1.754.848-3.405.848-6.139 0-2.734-.265-4.385-.848-6.139-1.431-4.333-5.353-6.861-10.494-6.861-5.194 0-9.116 2.528-10.547 6.861-.583 1.754-.848 3.405-.848 6.139 0 2.734.265 4.385.848 6.139 1.431 4.333 5.353 6.861 10.547 6.861 5.141 0 9.063-2.528 10.494-6.861zm-15.317-1.165c-.424-1.325-.53-2.544-.53-4.717 0-2.173.106-3.339.53-4.717.742-2.12 2.438-3.51 4.823-3.51 2.385 0 4.028 1.39 4.77 3.51.424 1.378.53 2.544.53 4.717 0 2.173-.106 3.392-.53 4.717-.742 2.12-2.385 3.339-4.77 3.339s-4.081-1.219-4.823-3.339zm24.931 8.056c.318 0 .53-.212.53-.53V33.677c0-4.081 1.946-6.637 5.285-6.637 1.378 0 2.135.648 3.301 1.39.265.212.53.159.742-.106l2.809-3.551c.212-.265.159-.477-.106-.742-1.325-1.325-3.365-1.991-5.379-1.991-3.233 0-5.38 1.196-6.599 3.157v-2.565a.596.596 0 00-.583-.592h-4.876c-.318 0-.53.274-.53.592V47.51c0 .318.212.53.53.53h4.876zm34.683-4.26c.212-.258.212-.516-.053-.722l-3.127-2.683c-.265-.206-.53-.155-.795.103-1.272 1.342-3.127 2.373-5.989 2.373s-4.876-1.341-5.724-3.766c-.212-.567-.371-1.186-.371-1.908 0-.207.106-.31.318-.31h15.741c.371 0 .583-.206.583-.516 0-4.024-.265-5.726-.848-7.48-1.431-4.23-5.247-6.861-10.494-6.861-5.088 0-9.01 2.528-10.441 6.861-.53 1.6-.848 3.56-.848 6.139 0 2.58.371 4.488.901 6.087 1.431 4.334 5.247 6.913 10.653 6.913 4.717 0 8.321-1.754 10.494-4.23zm-5.406-11.375c0 .212-.106.318-.318.318h-10.017c-.212 0-.318-.106-.318-.318 0-.901.106-1.537.318-2.173.689-2.067 2.57-3.192 5.009-3.192 2.385 0 4.319 1.125 5.008 3.192.212.636.318 1.272.318 2.173z" fill="#333"/></g></svg>